<svg width="25" height="22" viewBox="0 0 25 22" fill="none" xmlns="http://www.w3.org/2000/svg">
<path d="M0 1.03125C0 0.459766 0.46441 0 1.04167 0H3.01649C3.97135 0 4.81771 0.55 5.21267 1.375H23.0512C24.1927 1.375 25.026 2.44922 24.7266 3.54063L22.947 10.0848C22.5781 11.434 21.3411 12.375 19.9306 12.375H7.40885L7.64323 13.5996C7.73872 14.0852 8.1684 14.4375 8.66753 14.4375H21.1806C21.7578 14.4375 22.2222 14.8973 22.2222 15.4688C22.2222 16.0402 21.7578 16.5 21.1806 16.5H8.66753C7.1658 16.5 5.87674 15.443 5.59896 13.9863L3.35938 2.3418C3.32899 2.17852 3.18576 2.0625 3.01649 2.0625H1.04167C0.46441 2.0625 0 1.60273 0 1.03125ZM5.55556 19.9375C5.55556 19.6666 5.60944 19.3985 5.71414 19.1482C5.81884 18.898 5.97229 18.6706 6.16575 18.4791C6.3592 18.2876 6.58887 18.1356 6.84163 18.032C7.09439 17.9283 7.3653 17.875 7.63889 17.875C7.91248 17.875 8.18338 17.9283 8.43615 18.032C8.68891 18.1356 8.91857 18.2876 9.11203 18.4791C9.30548 18.6706 9.45894 18.898 9.56364 19.1482C9.66833 19.3985 9.72222 19.6666 9.72222 19.9375C9.72222 20.2084 9.66833 20.4765 9.56364 20.7268C9.45894 20.977 9.30548 21.2044 9.11203 21.3959C8.91857 21.5874 8.68891 21.7394 8.43615 21.843C8.18338 21.9467 7.91248 22 7.63889 22C7.3653 22 7.09439 21.9467 6.84163 21.843C6.58887 21.7394 6.3592 21.5874 6.16575 21.3959C5.97229 21.2044 5.81884 20.977 5.71414 20.7268C5.60944 20.4765 5.55556 20.2084 5.55556 19.9375ZM20.1389 17.875C20.6914 17.875 21.2213 18.0923 21.612 18.4791C22.0027 18.8659 22.2222 19.3905 22.2222 19.9375C22.2222 20.4845 22.0027 21.0091 21.612 21.3959C21.2213 21.7827 20.6914 22 20.1389 22C19.5864 22 19.0564 21.7827 18.6657 21.3959C18.275 21.0091 18.0556 20.4845 18.0556 19.9375C18.0556 19.3905 18.275 18.8659 18.6657 18.4791C19.0564 18.0923 19.5864 17.875 20.1389 17.875Z" fill="#007E5B"/>
</svg>
