<svg width="25" height="22" viewBox="0 0 25 22" fill="none" xmlns="http://www.w3.org/2000/svg">
<path d="M24.9913 10.9785C24.9913 11.752 24.3403 12.3578 23.6024 12.3578H22.2135L22.2439 19.2414C22.2439 19.3574 22.2352 19.4734 22.2222 19.5895V20.2812C22.2222 21.2309 21.4453 22 20.4861 22H19.7917C19.7439 22 19.6962 22 19.6484 21.9957C19.5877 22 19.5269 22 19.4661 22H18.0556H17.0139C16.0547 22 15.2778 21.2309 15.2778 20.2812V19.25V16.5C15.2778 15.7395 14.6571 15.125 13.8889 15.125H11.1111C10.3429 15.125 9.72222 15.7395 9.72222 16.5V19.25V20.2812C9.72222 21.2309 8.94531 22 7.98611 22H6.94444H5.5599C5.49479 22 5.42969 21.9957 5.36458 21.9914C5.3125 21.9957 5.26042 22 5.20833 22H4.51389C3.55469 22 2.77778 21.2309 2.77778 20.2812V15.4688C2.77778 15.4301 2.77778 15.3871 2.78212 15.3484V12.3578H1.38889C0.607639 12.3578 0 11.7563 0 10.9785C0 10.5918 0.130208 10.248 0.434028 9.94727L11.5625 0.34375C11.8663 0.0429688 12.2135 0 12.5174 0C12.8212 0 13.1684 0.0859375 13.4288 0.300781L24.5139 9.94727C24.8611 10.248 25.0347 10.5918 24.9913 10.9785Z" fill="#007E5B"/>
</svg>
