<svg width="22" height="18" viewBox="0 0 22 18" fill="none" xmlns="http://www.w3.org/2000/svg">
<path d="M1.71875 0.0625C1.14727 0.0625 0.6875 0.522266 0.6875 1.09375V3.15625C0.6875 3.72773 1.14727 4.1875 1.71875 4.1875H3.78125C4.35273 4.1875 4.8125 3.72773 4.8125 3.15625V1.09375C4.8125 0.522266 4.35273 0.0625 3.78125 0.0625H1.71875ZM8.25 0.75C7.48945 0.75 6.875 1.36445 6.875 2.125C6.875 2.88555 7.48945 3.5 8.25 3.5H20.625C21.3855 3.5 22 2.88555 22 2.125C22 1.36445 21.3855 0.75 20.625 0.75H8.25ZM8.25 7.625C7.48945 7.625 6.875 8.23945 6.875 9C6.875 9.76055 7.48945 10.375 8.25 10.375H20.625C21.3855 10.375 22 9.76055 22 9C22 8.23945 21.3855 7.625 20.625 7.625H8.25ZM8.25 14.5C7.48945 14.5 6.875 15.1145 6.875 15.875C6.875 16.6355 7.48945 17.25 8.25 17.25H20.625C21.3855 17.25 22 16.6355 22 15.875C22 15.1145 21.3855 14.5 20.625 14.5H8.25ZM0.6875 7.96875V10.0312C0.6875 10.6027 1.14727 11.0625 1.71875 11.0625H3.78125C4.35273 11.0625 4.8125 10.6027 4.8125 10.0312V7.96875C4.8125 7.39727 4.35273 6.9375 3.78125 6.9375H1.71875C1.14727 6.9375 0.6875 7.39727 0.6875 7.96875ZM1.71875 13.8125C1.14727 13.8125 0.6875 14.2723 0.6875 14.8438V16.9062C0.6875 17.4777 1.14727 17.9375 1.71875 17.9375H3.78125C4.35273 17.9375 4.8125 17.4777 4.8125 16.9062V14.8438C4.8125 14.2723 4.35273 13.8125 3.78125 13.8125H1.71875Z" fill="#007E5B"/>
</svg>
