<svg width="26" height="22" viewBox="0 0 26 22" fill="none" xmlns="http://www.w3.org/2000/svg">
<path d="M1.495 8.25H24.505C25.3297 8.25 26 7.54102 26 6.66875C26 6.35508 25.9106 6.05 25.7481 5.79219L22.6769 0.919531C22.3153 0.34375 21.71 0 21.0559 0H4.94406C4.29406 0 3.68469 0.34375 3.32312 0.919531L0.251875 5.78789C0.089375 6.05 0 6.35508 0 6.66445C0 7.54102 0.670312 8.25 1.495 8.25ZM2.6 9.625V16.5V19.9375C2.6 21.0762 3.47344 22 4.55 22H13.65C14.7266 22 15.6 21.0762 15.6 19.9375V16.5V9.625H13V16.5H5.2V9.625H2.6ZM20.8 9.625V20.625C20.8 21.3855 21.3809 22 22.1 22C22.8191 22 23.4 21.3855 23.4 20.625V9.625H20.8Z" fill="#007E5B"/>
</svg>
