<svg width="20" height="22" viewBox="0 0 20 22" fill="none" xmlns="http://www.w3.org/2000/svg">
<path d="M18.5714 0C17.8571 0 12.8571 1.375 12.8571 7.5625V12.375C12.8571 13.8918 14.1384 15.125 15.7143 15.125H17.1429V20.625C17.1429 21.3855 17.7812 22 18.5714 22C19.3616 22 20 21.3855 20 20.625V15.125V10.3125V1.375C20 0.614453 19.3616 0 18.5714 0ZM2.85714 0.6875C2.85714 0.335156 2.58482 0.0429687 2.21875 0.00429688C1.85268 -0.034375 1.52679 0.197656 1.44643 0.537109L0.09375 6.39375C0.03125 6.66445 0 6.93945 0 7.21445C0 9.18672 1.56696 10.8066 3.57143 10.9828V20.625C3.57143 21.3855 4.20982 22 5 22C5.79018 22 6.42857 21.3855 6.42857 20.625V10.9828C8.43304 10.8066 10 9.18672 10 7.21445C10 6.93945 9.96875 6.66445 9.90625 6.39375L8.55357 0.537109C8.47321 0.193359 8.13839 -0.034375 7.77679 0.00429688C7.41518 0.0429687 7.14286 0.335156 7.14286 0.6875V6.45391C7.14286 6.68594 6.94643 6.875 6.70536 6.875C6.47768 6.875 6.29018 6.70742 6.26786 6.48828L5.70982 0.627344C5.67857 0.270703 5.37054 0 5 0C4.62946 0 4.32143 0.270703 4.29018 0.627344L3.73661 6.48828C3.71429 6.70742 3.52679 6.875 3.29911 6.875C3.05804 6.875 2.86161 6.68594 2.86161 6.45391V0.6875H2.85714ZM5.01339 7.21875H5H4.98661L5 7.18867L5.01339 7.21875Z" fill="#007E5B"/>
</svg>
