<svg width="11" height="10" viewBox="0 0 11 10" fill="none" xmlns="http://www.w3.org/2000/svg">
<g clip-path="url(#clip0_25_139)">
<path d="M5.4981 0.157913C5.67379 0.157913 5.83421 0.250007 5.9106 0.397002L7.22067 2.89947L10.1464 3.29972C10.3182 3.32274 10.4615 3.43432 10.5149 3.5884C10.5684 3.74248 10.5245 3.90895 10.4023 4.0223L8.28056 5.97397L8.78091 8.72969C8.80955 8.88909 8.73889 9.05025 8.59567 9.14589C8.45244 9.24152 8.26528 9.25215 8.11251 9.17599L5.49619 7.8796L2.88369 9.17422C2.729 9.25038 2.54185 9.23975 2.40053 9.14411C2.25921 9.04848 2.18664 8.88732 2.21528 8.72792L2.71563 5.9722L0.59393 4.0223C0.469799 3.90895 0.427785 3.74071 0.481257 3.5884C0.534729 3.43609 0.677958 3.32451 0.849833 3.29972L3.77553 2.89947L5.0856 0.397002C5.1639 0.250007 5.3224 0.157913 5.4981 0.157913ZM5.4981 1.55703L4.49549 3.47328C4.42865 3.59902 4.3007 3.68757 4.14983 3.70883L1.89063 4.01699L3.53108 5.52413C3.63612 5.62154 3.68577 5.75968 3.66094 5.89605L3.27327 8.01597L5.2823 7.02065C5.41789 6.95335 5.58021 6.95335 5.7139 7.02065L7.72292 8.01597L7.33716 5.89782C7.31233 5.76145 7.36008 5.62331 7.46702 5.5259L9.10747 4.01876L6.84827 3.70883C6.69931 3.68757 6.56945 3.60079 6.50261 3.47328L5.4981 1.55703Z" fill="#007E5B"/>
</g>
<defs>
<clipPath id="clip0_25_139">
<rect width="11" height="9.06767" fill="white" transform="translate(0 0.157913)"/>
</clipPath>
</defs>
</svg>
