<svg width="17" height="21" viewBox="0 0 17 21" fill="none" xmlns="http://www.w3.org/2000/svg">
<path d="M8.5 10.5714C9.78819 10.5714 11.0236 10.0597 11.9345 9.14881C12.8454 8.23792 13.3571 7.00248 13.3571 5.71429C13.3571 4.4261 12.8454 3.19066 11.9345 2.27977C11.0236 1.36888 9.78819 0.857147 8.5 0.857147C7.21181 0.857147 5.97637 1.36888 5.06548 2.27977C4.15459 3.19066 3.64286 4.4261 3.64286 5.71429C3.64286 7.00248 4.15459 8.23792 5.06548 9.14881C5.97637 10.0597 7.21181 10.5714 8.5 10.5714ZM6.76585 12.3929C3.02813 12.3929 0 15.421 0 19.1587C0 19.781 0.504688 20.2857 1.12701 20.2857H15.873C16.4953 20.2857 17 19.781 17 19.1587C17 15.421 13.9719 12.3929 10.2342 12.3929H6.76585Z" fill="#007E5B"/>
</svg>
